<?xml version="1.0" encoding="utf-8"?>
<svg xmlns="http://www.w3.org/2000/svg" fill="none" height="24" viewBox="0 0 24 24" width="24">
<path d="M17.8764 11.6994C17.8872 10.8562 18.1104 10.0294 18.5251 9.29594C18.9399 8.56252 19.5327 7.94631 20.2486 7.50464C19.7938 6.85284 19.1939 6.31644 18.4965 5.93803C17.7991 5.55962 17.0234 5.34964 16.2309 5.32476C14.5406 5.14669 12.9018 6.33993 12.0404 6.33993C11.1624 6.33993 9.83615 5.34244 8.40801 5.37193C7.48425 5.40188 6.58398 5.67148 5.7949 6.15446C5.00583 6.63743 4.35487 7.31732 3.90544 8.12786C1.95862 11.5107 3.41077 16.4824 5.27566 19.2169C6.20871 20.5558 7.29917 22.0515 8.72602 21.9985C10.1223 21.9404 10.6437 21.1049 12.3291 21.1049C13.9989 21.1049 14.4882 21.9985 15.944 21.9648C17.4422 21.9404 18.3862 20.6198 19.2865 19.2682C19.9569 18.3141 20.4727 17.2596 20.815 16.1438C19.9445 15.7744 19.2017 15.1559 18.6791 14.3655C18.1566 13.5752 17.8774 12.6479 17.8764 11.6994Z" fill="#676F78"/>
<path d="M15.127 3.52653C15.9439 2.5423 16.3463 1.27724 16.2489 0C15.0008 0.13156 13.848 0.730215 13.02 1.67668C12.6152 2.13906 12.3052 2.67697 12.1076 3.25968C11.9101 3.84238 11.8289 4.45845 11.8687 5.07266C12.493 5.07911 13.1106 4.94331 13.6749 4.6755C14.2393 4.40768 14.7358 4.01483 15.127 3.52653Z" fill="#676F78"/>
</svg>